<?xml version="1.0" encoding="UTF-8"?>
<!DOCTYPE svg PUBLIC "-//W3C//DTD SVG 1.1//EN" "http://www.w3.org/Graphics/SVG/1.1/DTD/svg11.dtd">
<svg xmlns="http://www.w3.org/2000/svg" version="1.1" width="150px" height="150px" style="shape-rendering:geometricPrecision; text-rendering:geometricPrecision; image-rendering:optimizeQuality; fill-rule:evenodd; clip-rule:evenodd" xmlns:xlink="http://www.w3.org/1999/xlink">
<g><path style="opacity:1" fill="#e8e8e8" d="M -0.5,-0.5 C 49.5,-0.5 99.5,-0.5 149.5,-0.5C 149.5,49.5 149.5,99.5 149.5,149.5C 99.5,149.5 49.5,149.5 -0.5,149.5C -0.5,99.5 -0.5,49.5 -0.5,-0.5 Z"/></g>
<g><path style="opacity:1" fill="#fcfdfc" d="M 0.5,0.5 C 49.8333,0.5 99.1667,0.5 148.5,0.5C 148.5,49.8333 148.5,99.1667 148.5,148.5C 99.1667,148.5 49.8333,148.5 0.5,148.5C 0.5,99.1667 0.5,49.8333 0.5,0.5 Z"/></g>
<g><path style="opacity:1" fill="#edaaac" d="M 58.5,23.5 C 59.209,22.596 60.209,22.2627 61.5,22.5C 65.1667,23.1667 68.8333,23.8333 72.5,24.5C 68.1667,24.5 63.8333,24.5 59.5,24.5C 59.5,23.8333 59.1667,23.5 58.5,23.5 Z"/></g>
<g><path style="opacity:1" fill="#ce5657" d="M 61.5,22.5 C 72.7219,21.0466 82.3885,24.0466 90.5,31.5C 89.5,31.5 88.5,31.5 87.5,31.5C 83.4482,27.3094 78.4482,24.9761 72.5,24.5C 68.8333,23.8333 65.1667,23.1667 61.5,22.5 Z"/></g>
<g><path style="opacity:1" fill="#4a95bf" d="M 83.5,36.5 C 83.5,37.1667 83.5,37.8333 83.5,38.5C 73.006,30.707 62.3393,30.5403 51.5,38C 46.1426,43.7273 43.3092,50.5606 43,58.5C 42.9065,39.5956 52.4065,30.429 71.5,31C 75.9155,32.0428 79.9155,33.8762 83.5,36.5 Z"/></g>
<g><path style="opacity:1" fill="#d25e5d" d="M 58.5,23.5 C 59.1667,23.5 59.5,23.8333 59.5,24.5C 41.703,30.7228 33.3696,43.3895 34.5,62.5C 31.7859,42.8852 39.7859,29.8852 58.5,23.5 Z"/></g>
<g><path style="opacity:1" fill="#f7cd19" d="M 87.5,31.5 C 88.5,31.5 89.5,31.5 90.5,31.5C 94.8333,31.8333 97.1667,34.1667 97.5,38.5C 92.6766,38.3272 90.6766,40.6606 91.5,45.5C 86.9642,45.2973 84.2976,42.964 83.5,38.5C 83.5,37.8333 83.5,37.1667 83.5,36.5C 83.8333,35.8333 84.1667,35.1667 84.5,34.5C 85.5,34.1667 86.1667,33.5 86.5,32.5C 87.1667,32.5 87.5,32.1667 87.5,31.5 Z"/></g>
<g><path style="opacity:1" fill="#30c869" d="M 97.5,38.5 C 97.5,38.8333 97.5,39.1667 97.5,39.5C 96.7735,42.2878 95.1068,44.2878 92.5,45.5C 92.1667,45.5 91.8333,45.5 91.5,45.5C 90.6766,40.6606 92.6766,38.3272 97.5,38.5 Z"/></g>
<g><path style="opacity:1" fill="#59c58d" d="M 86.5,32.5 C 86.1667,33.5 85.5,34.1667 84.5,34.5C 81.7567,31.8412 78.4234,30.0079 74.5,29C 51.7701,26.567 40.1035,36.7337 39.5,59.5C 36.3844,46.8566 40.7177,37.0233 52.5,30C 64.3541,23.5168 75.6874,24.3501 86.5,32.5 Z"/></g>
<g><path style="opacity:1" fill="#3496d7" d="M 97.5,39.5 C 101.697,42.9596 101.03,45.6263 95.5,47.5C 93.9623,47.5466 92.9623,46.8799 92.5,45.5C 95.1068,44.2878 96.7735,42.2878 97.5,39.5 Z"/></g>
<g><path style="opacity:1" fill="#f9cb20" d="M 76.5,41.5 C 76.5574,49.934 72.5574,52.7673 64.5,50C 63.6266,48.955 62.6266,48.1217 61.5,47.5C 59.429,42.6274 60.7623,38.7941 65.5,36C 68.7829,35.2571 71.7829,35.9238 74.5,38C 75.8228,38.8159 76.4894,39.9826 76.5,41.5 Z"/></g>
<g><path style="opacity:1" fill="#fff7be" d="M 69.5,39.5 C 70.5,39.5 71.5,39.5 72.5,39.5C 71.7542,43.31 70.7542,43.31 69.5,39.5 Z"/></g>
<g><path style="opacity:1" fill="#e1a437" d="M 76.5,41.5 C 78.1705,45.7421 77.1705,49.4087 73.5,52.5C 70.5,52.5 67.5,52.5 64.5,52.5C 63.075,51.078 62.075,49.4113 61.5,47.5C 62.6266,48.1217 63.6266,48.955 64.5,50C 72.5574,52.7673 76.5574,49.934 76.5,41.5 Z"/></g>
<g><path style="opacity:1" fill="#3088c7" d="M 64.5,52.5 C 67.5,52.5 70.5,52.5 73.5,52.5C 77.914,54.1553 78.5807,56.8219 75.5,60.5C 71.1667,60.5 66.8333,60.5 62.5,60.5C 60.7568,58.8739 60.2568,56.8739 61,54.5C 61.8159,53.1772 62.9826,52.5106 64.5,52.5 Z"/></g>
<g><path style="opacity:1" fill="#cf4e4c" d="M 62.5,60.5 C 66.8333,60.5 71.1667,60.5 75.5,60.5C 77.5,60.5 78.5,61.5 78.5,63.5C 76.2686,62.4817 74.1019,62.8151 72,64.5C 70.4495,63.9465 68.9495,63.2798 67.5,62.5C 66.3279,62.9186 65.3279,63.5853 64.5,64.5C 60.7841,61.5324 59.1175,62.5324 59.5,67.5C 65.8918,67.7513 72.2252,67.418 78.5,66.5C 78.1667,67.5 77.5,68.1667 76.5,68.5C 70.31,68.1771 64.31,68.5104 58.5,69.5C 57.8333,69.8333 57.1667,70.1667 56.5,70.5C 56.67,69.1779 56.3366,68.0113 55.5,67C 53.1887,66.7641 51.1887,65.9307 49.5,64.5C 49.5,64.1667 49.5,63.8333 49.5,63.5C 52.7452,63.97 55.5786,65.3034 58,67.5C 57.6629,63.8173 59.1629,61.484 62.5,60.5 Z"/></g>
<g><path style="opacity:1" fill="#f8cc21" d="M 39.5,59.5 C 43.2594,58.9582 45.9261,60.2916 47.5,63.5C 42.9281,65.0694 39.5947,68.0694 37.5,72.5C 35.6573,70.8413 34.6573,68.6746 34.5,66C 35.6354,63.3719 37.3021,61.2053 39.5,59.5 Z"/></g>
<g><path style="opacity:1" fill="#ea422e" d="M 93.5,63.5 C 90.3649,65.2387 87.3649,67.2387 84.5,69.5C 84.6656,64.9977 86.9989,62.331 91.5,61.5C 92.7133,61.7472 93.38,62.4138 93.5,63.5 Z"/></g>
<g><path style="opacity:1" fill="#ee2c29" d="M 78.5,63.5 C 79.8333,64.5 79.8333,65.5 78.5,66.5C 72.2252,67.418 65.8918,67.7513 59.5,67.5C 59.1175,62.5324 60.7841,61.5324 64.5,64.5C 65.3279,63.5853 66.3279,62.9186 67.5,62.5C 68.9495,63.2798 70.4495,63.9465 72,64.5C 74.1019,62.8151 76.2686,62.4817 78.5,63.5 Z"/></g>
<g><path style="opacity:1" fill="#fb880b" d="M 47.5,63.5 C 48.1667,63.5 48.8333,63.5 49.5,63.5C 49.5,63.8333 49.5,64.1667 49.5,64.5C 49.3706,72.2601 45.3706,75.2601 37.5,73.5C 37.5,73.1667 37.5,72.8333 37.5,72.5C 39.5947,68.0694 42.9281,65.0694 47.5,63.5 Z"/></g>
<g><path style="opacity:1" fill="#f62d28" d="M 49.5,64.5 C 51.1887,65.9307 53.1887,66.7641 55.5,67C 56.3366,68.0113 56.67,69.1779 56.5,70.5C 55.5655,71.5676 55.2322,72.901 55.5,74.5C 54.8333,76.1667 54.1667,77.8333 53.5,79.5C 53.2322,81.099 53.5655,82.4324 54.5,83.5C 54.5,84.1667 54.8333,84.5 55.5,84.5C 55.5,84.8333 55.5,85.1667 55.5,85.5C 53.6203,85.2291 52.287,85.8958 51.5,87.5C 42.5,87.1667 37.8333,82.5 37.5,73.5C 45.3706,75.2601 49.3706,72.2601 49.5,64.5 Z"/></g>
<g><path style="opacity:1" fill="#47a66c" d="M 58.5,69.5 C 64.31,68.5104 70.31,68.1771 76.5,68.5C 77.9187,69.4511 79.5853,69.7845 81.5,69.5C 81.8928,72.5133 81.2261,75.1799 79.5,77.5C 72.1667,77.5 64.8333,77.5 57.5,77.5C 57.5,77.1667 57.5,76.8333 57.5,76.5C 62.8993,76.691 68.2326,76.191 73.5,75C 72.2068,74.51 70.8734,74.3433 69.5,74.5C 69.5,73.5 69.5,72.5 69.5,71.5C 73.5164,70.8999 77.0164,71.8999 80,74.5C 80.49,73.2068 80.6567,71.8734 80.5,70.5C 73.1239,70.7257 65.7906,70.3924 58.5,69.5 Z"/></g>
<g><path style="opacity:1" fill="#1cb864" d="M 58.5,69.5 C 65.7906,70.3924 73.1239,70.7257 80.5,70.5C 80.6567,71.8734 80.49,73.2068 80,74.5C 77.0164,71.8999 73.5164,70.8999 69.5,71.5C 69.5,72.5 69.5,73.5 69.5,74.5C 70.8734,74.3433 72.2068,74.51 73.5,75C 68.2326,76.191 62.8993,76.691 57.5,76.5C 57.1667,75.5 56.5,74.8333 55.5,74.5C 55.2322,72.901 55.5655,71.5676 56.5,70.5C 57.1667,70.1667 57.8333,69.8333 58.5,69.5 Z"/></g>
<g><path style="opacity:1" fill="#cf5057" d="M 55.5,74.5 C 56.5,74.8333 57.1667,75.5 57.5,76.5C 57.5,76.8333 57.5,77.1667 57.5,77.5C 55.9382,77.7329 54.6049,78.3995 53.5,79.5C 54.1667,77.8333 54.8333,76.1667 55.5,74.5 Z"/></g>
<g><path style="opacity:1" fill="#8cd3f0" d="M 57.5,77.5 C 64.8333,77.5 72.1667,77.5 79.5,77.5C 81.5542,77.3653 83.2209,78.032 84.5,79.5C 82.4849,83.9719 79.4849,84.6386 75.5,81.5C 73.2025,78.6535 71.8691,78.9868 71.5,82.5C 65.642,82.1778 59.9753,82.5111 54.5,83.5C 53.5655,82.4324 53.2322,81.099 53.5,79.5C 54.6049,78.3995 55.9382,77.7329 57.5,77.5 Z"/></g>
<g><path style="opacity:1" fill="#e9352a" d="M 103.5,74.5 C 108.652,77.1451 107.985,78.8117 101.5,79.5C 100.159,77.1658 100.826,75.4991 103.5,74.5 Z"/></g>
<g><path style="opacity:1" fill="#90b891" d="M 75.5,81.5 C 74.5,81.5 73.5,81.5 72.5,81.5C 72.5,82.8333 72.5,84.1667 72.5,85.5C 66.8333,85.5 61.1667,85.5 55.5,85.5C 55.5,85.1667 55.5,84.8333 55.5,84.5C 61.2709,85.1128 66.6042,84.4461 71.5,82.5C 71.8691,78.9868 73.2025,78.6535 75.5,81.5 Z"/></g>
<g><path style="opacity:1" fill="#2591e8" d="M 71.5,82.5 C 66.6042,84.4461 61.2709,85.1128 55.5,84.5C 54.8333,84.5 54.5,84.1667 54.5,83.5C 59.9753,82.5111 65.642,82.1778 71.5,82.5 Z"/></g>
<g><path style="opacity:1" fill="#f8ca1e" d="M 93.5,63.5 C 99.674,64.6705 103.007,68.3372 103.5,74.5C 100.826,75.4991 100.159,77.1658 101.5,79.5C 100.2,80.601 99.7003,81.9343 100,83.5C 103.597,85.1002 106.597,87.4335 109,90.5C 110.26,95.8138 108.426,99.6471 103.5,102C 94.8397,102.5 86.1731,102.666 77.5,102.5C 77.5,102.167 77.5,101.833 77.5,101.5C 76.2073,99.7041 74.7073,98.0375 73,96.5C 72.5172,95.552 72.3505,94.552 72.5,93.5C 72.5,92.5 72.5,91.5 72.5,90.5C 67.1563,90.334 61.8229,90.5006 56.5,91C 55.2625,91.2321 54.2625,91.7321 53.5,92.5C 51.7868,91.3646 51.1201,89.698 51.5,87.5C 52.287,85.8958 53.6203,85.2291 55.5,85.5C 61.1667,85.5 66.8333,85.5 72.5,85.5C 72.5,84.1667 72.5,82.8333 72.5,81.5C 73.5,81.5 74.5,81.5 75.5,81.5C 79.4849,84.6386 82.4849,83.9719 84.5,79.5C 83.4095,76.0145 83.4095,72.6812 84.5,69.5C 87.3649,67.2387 90.3649,65.2387 93.5,63.5 Z"/></g>
<g><path style="opacity:1" fill="#573c27" d="M 95.5,71.5 C 99.31,72.7542 99.31,73.7542 95.5,74.5C 95.5,73.5 95.5,72.5 95.5,71.5 Z"/></g>
<g><path style="opacity:1" fill="#fdf9c3" d="M 87.5,69.5 C 88.675,69.281 89.675,69.6143 90.5,70.5C 88.9483,71.7979 87.9483,71.4646 87.5,69.5 Z"/></g>
<g><path style="opacity:1" fill="#fdfb05" d="M 78.5,87.5 C 82.9113,87.021 87.078,87.6876 91,89.5C 91.6667,90.8333 91.6667,92.1667 91,93.5C 87.843,95.2202 84.5096,96.5536 81,97.5C 77.5503,94.8409 76.717,91.5076 78.5,87.5 Z"/></g>
<g><path style="opacity:1" fill="#fa8d09" d="M 72.5,93.5 C 66.1667,93.5 59.8333,93.5 53.5,93.5C 53.5,93.1667 53.5,92.8333 53.5,92.5C 54.2625,91.7321 55.2625,91.2321 56.5,91C 61.8229,90.5006 67.1563,90.334 72.5,90.5C 72.5,91.5 72.5,92.5 72.5,93.5 Z"/></g>
<g><path style="opacity:1" fill="#fef2c2" d="M 100.5,91.5 C 101.5,91.5 102.5,91.5 103.5,91.5C 103.5,92.8333 103.5,94.1667 103.5,95.5C 102.167,95.5 100.833,95.5 99.5,95.5C 99.4326,94.0413 99.7659,92.7079 100.5,91.5 Z"/></g>
<g><path style="opacity:1" fill="#e72621" d="M 53.5,93.5 C 59.8333,93.5 66.1667,93.5 72.5,93.5C 72.3505,94.552 72.5172,95.552 73,96.5C 74.7073,98.0375 76.2073,99.7041 77.5,101.5C 68.0833,101.805 58.75,101.472 49.5,100.5C 47.4792,96.2495 48.8126,93.9162 53.5,93.5 Z"/></g>
<g><path style="opacity:1" fill="#fdc1c2" d="M 49.5,100.5 C 58.75,101.472 68.0833,101.805 77.5,101.5C 77.5,101.833 77.5,102.167 77.5,102.5C 67.7734,103.139 58.4401,102.472 49.5,100.5 Z"/></g>
<g><path style="opacity:1" fill="#e56060" d="M 81.5,113.5 C 81.5,113.833 81.5,114.167 81.5,114.5C 79.9385,116.372 78.9385,118.705 78.5,121.5C 77.7864,118.973 77.1197,116.473 76.5,114C 78.1341,113.506 79.8008,113.34 81.5,113.5 Z"/></g>
<g><path style="opacity:1" fill="#60a5cd" d="M 53.5,112.5 C 57.3754,111.874 59.2087,113.541 59,117.5C 61.1919,112.284 62.8586,112.617 64,118.5C 64.7517,111.582 67.7517,110.582 73,115.5C 73.8113,114.04 74.6446,113.707 75.5,114.5C 74.7643,116.541 73.9309,118.541 73,120.5C 72.6397,118.579 71.8064,116.912 70.5,115.5C 69.9985,121.755 66.8318,123.088 61,119.5C 58.5667,120.479 56.0667,121.145 53.5,121.5C 53.5,118.5 53.5,115.5 53.5,112.5 Z"/></g>
<g><path style="opacity:1" fill="#d46c6c" d="M 81.5,114.5 C 81.5,114.167 81.5,113.833 81.5,113.5C 84.9065,112.075 87.9065,112.742 90.5,115.5C 91.3333,114.5 92.1667,113.5 93,112.5C 94.8133,112.747 96.6467,113.08 98.5,113.5C 97.624,114.251 96.624,114.751 95.5,115C 99.619,117.574 99.4524,119.74 95,121.5C 94.5,121.167 94,120.833 93.5,120.5C 94.5,119.833 95.5,119.167 96.5,118.5C 94.8035,117.636 93.6368,116.303 93,114.5C 92.1667,116.5 91.3333,118.5 90.5,120.5C 89.6667,118.5 88.8333,116.5 88,114.5C 88.1069,117.557 86.9402,119.891 84.5,121.5C 81.9066,119.929 80.9066,117.596 81.5,114.5 Z"/></g>
<g><path style="opacity:1" fill="#faf2e9" d="M 83.5,114.5 C 84.6491,114.791 85.3158,115.624 85.5,117C 85.1667,117.833 84.8333,118.667 84.5,119.5C 83.5481,117.955 83.2148,116.288 83.5,114.5 Z"/></g>
</svg>
